<svg height="512pt" viewBox="0 0 512 512" width="512pt" xmlns="http://www.w3.org/2000/svg"><path d="m333.710938 186c16.640624-23.160156 30.808593-46.929688 30.808593-77.480469 0-59.640625-48.359375-108.199219-107.917969-108.519531h-.613281c-59.828125 0-108.507812 48.679688-108.507812 108.519531 0 30.550781 14.167969 54.320313 30.808593 77.480469h-178.289062v326h512v-326zm148.289062 217.375-121.242188-99.5625.003907-.003906 85.207031-87.808594h36.03125zm-77.839844-187.375-181.679687 187.238281-.003907.003907-114.96875-94.410157h.003907l91.488281-94.53125 56.71875 77.359375 56.03125-75.660156zm-197.96875-42.628906c-15.703125-21.421875-28.710937-41.089844-28.710937-64.851563 0-43.167969 35.007812-78.308593 78.121093-78.519531h.398438c43.289062 0 78.519531 35.21875 78.519531 78.519531 0 23.761719-13.007812 43.429688-28.710937 64.859375 0 0-49.277344 67.3125-49.757813 67.992188zm-176.191406 42.628906h125.609375l-125.609375 129.769531zm0 172.898438 56.566406-58.445313 114.953125 94.398437-55.460937 57.148438h-116.058594zm157.859375 93.101562 151.941406-156.578125v-.003906l142.199219 116.773437v39.808594zm0 0"/><path d="m309.070312 108.519531c0-29.269531-23.808593-53.070312-53.070312-53.070312s-53.070312 23.800781-53.070312 53.070312c0 29.261719 23.808593 53.058594 53.070312 53.058594s53.070312-23.796875 53.070312-53.058594zm-76.140624 0c0-12.71875 10.351562-23.070312 23.070312-23.070312s23.070312 10.351562 23.070312 23.070312c0 12.710938-10.351562 23.058594-23.070312 23.058594s-23.070312-10.347656-23.070312-23.058594zm0 0"/></svg>